{"title":"Formula 1 2011 Chinese Race HD 1080i H264 AC3 DD","uid":6325108,"size":4704560008,"categoryP":"other","categoryS":"other","magnet":"?xt=urn:btih:976ea7a92ccf6308cba020d16960d2864aab4cf6&amp;dn=Formula+1+2011+Chinese+Race+HD+1080i+H264+AC3+DD&amp;tr=udp%3A%2F%2Ftracker.openbittorrent.com%3A80&amp;tr=udp%3A%2F%2Fopen.demonii.com%3A1337&amp;tr=udp%3A%2F%2Ftracker.coppersurfer.tk%3A6969&amp;tr=udp%3A%2F%2Fexodus.desync.com%3A6969","seeders":0,"leechers":2,"uploader":"jorrell0733","files":5,"time":1303082722,"description":"Formula One 2011 Season\n\nRace 2: Chinese Grand Prix, Shanghai. Shangahi International Circuit\n\nRecord Source: BBC One HD\nOriginal Format: H.264 MPEG- TS File\nDate: Sunday 17th April 2011\nTime: 07:00 to 10:15\n\n\nChinese Grand Prix Race Live\n\nAs Many of you F1 followers on here have asked for High Definition Qualify, Ive decided to bite the bullet\nand buy the 1st DVB-T2 Freeview HD Tuner card available here in the UK! Its taken some time to work out \nthe bugs with the limited software supplied (as Im yet to find a suitable DVB-T2 supported 3rd party\nsoftware). Also finding a decent demuxer and encoder as in their wisdom, the HD on freeview is broadcast \nin AAC 5.1! not AC3 Dolby Digital, which posed no end of problems with encoding to mp4 etc\nbut I can now bring you The Formula 1 coverage in HD!\n\nFrom now, both the Qualifying &amp; the Race will be uploaded in High Definition..\n\nAt present there is no Red Button Service In HD so Im afraid the Practice sessions which are on the BBC \nInterative feed only are of SD quality. Hopefully the BBC will soon add support for this for those users\nsuch as myself that are using a PC as their PVR!\n\nIn order to keep file sizes to a reasonable level for uploading/downloading purposes, I have had to limit\n the bitrate on the encoding to within an acceptable norm bearing in mind that most TV Broadcasts from \nthe US for example, use around 1.2GB per 45min episodes of HD Ripped from a TV Source.\nWith that in mind, Ive kept the bitrate around the same which is under 4000kbps.\n\nThe original BBC HD broadcasts is 1440x1080 (1080i) which isnt really 1080p quality as its interlaced, its more in between \n1080p &amp; 720p, but i decided to keep as high a resolution as possible, so my F1 uploads will remain 1440x1080. \n\nAgain to keep the codec situation to a minimum, and to ensure playback on most machines, \nI have dropped the MP4 format in favour of the Matroska container format (mkv)\n\nVideo: The Video is encoded using AVC/H.264 into a mkv container\nAudio: The audio is now Dolby Digital. Support for  AC3 codec (2 channels as Live broadcasts are not 5.1)\n\nIve tested these recoded files myself on a LCD 50\\&quot; Full HD LG TV, and the quality is excellent.\n\nI hope you all enjoy the Formula 1 coverage in HD, and DONT complain about the increased file sizes! \nIf you all seed for as long as you can, you will all get a fast download!\n\nI hope you all enjoy the Formula 1 coverage in HD....\n\nFor anyone who need it, or those unfamiliar with playing HD quality on their PC, \nIve included this first upload with an excellent player for MKV h.264 encoded media.\nIncluded in the torrent is VLC Media Player v1.1.9, just install and play! You can additionally\ninstall the Ac3 filter for those using a home theatre system for digital passthrough AC3&gt;SPDIF output\n\nAnyway, enough waffling, here\\'s the details:\n\nFor ease, the Race has been split into 2 seperate files. One is the Race only, \nand the other is the 1 hr pre race build up. You can download both or just which you need.!\n\nJake Humphrey, Martin Brundle &amp; David Coulthard (No Eddie Jordan this weekend!) present the F1 coverage to the 3rd Race \nmeeting of the 2011 Formula One season, The Chinese Grand Prix, from the Shanghai International Curcuit, Shanghai\n\nFilename 1: Formula 1 2011 Chinese Race.HD.1080i.(H.264.AC3.DD)\n\nComplete name                    : F1 2011 Chinese Race.HD.1080i.H264.AC3.DD.mkv\nFormat                           : Matroska\nFile size                        : 3.12 GiB\nDuration                         : 2h 19mn\nOverall bit rate                 : 3 210 Kbps\nWriting application              : HandBrake 0.9.5\nWriting library                  : libmkv 0.6.4.1\n\nVideo\nID                               : 1\nFormat                           : AVC\nFormat/Info                      : Advanced Video Codec\nFormat profile                   : &lt;a class=&quot;__cf_email__&quot; href=&quot;/cdn-cgi/l/email-protection&quot; data-cfemail=&quot;df92beb6b19f93ebf1ef&quot;&gt;[email&amp;#160;protected]&lt;/a&gt;&lt;script cf-hash='f9e31' type=&quot;text/javascript&quot;&gt;\n/* &lt;![CDATA[ */!function(){try{var t=&quot;currentScript&quot;in document?document.currentScript:function(){for(var t=document.getElementsByTagName(&quot;script&quot;),e=t.length;e--;)if(t[e].getAttribute(&quot;cf-hash&quot;))return t[e]}();if(t&amp;&amp;t.previousSibling){var e,r,n,i,c=t.previousSibling,a=c.getAttribute(&quot;data-cfemail&quot;);if(a){for(e=&quot;&quot;,r=parseInt(a.substr(0,2),16),n=2;a.length-n;n+=2)i=parseInt(a.substr(n,2),16)^r,e+=String.fromCharCode(i);e=document.createTextNode(e),c.parentNode.replaceChild(e,c)}}}catch(u){}}();/* ]]&gt; */&lt;/script&gt;\nFormat settings, CABAC           : Yes\nFormat settings, ReFrames        : 4 frames\nFormat settings, GOP             : M=1, N=16\nCodec ID                         : V_MPEG4/ISO/AVC\nDuration                         : 2h 19mn\nBit rate                         : 3 050 Kbps\nWidth                            : 1 440 pixels\nHeight                           : 1 078 pixels\nDisplay aspect ratio             : 16:9\nFrame rate mode                  : Variable\nFrame rate                       : 25.000 fps\nColor space                      : YUV\nChroma subsampling               : 4:2:0\nBit depth                        : 8 bits\nScan type                        : Progressive\nBits/(Pixel*Frame)               : 0.079\nStream size                      : 2.90 GiB (93%)\nWriting library                  : x264 core 112\nEncoding settings                : cabac=1 / ref=2 / deblock=1:0:0 / analyse=0x1:0x111 / me=hex / subme=6 / psy=1 / psy_rd=1.00:0.00 / mixed_ref=0 / me_range=16 / chroma_me=1 / trellis=0 / 8x8dct=0 / cqm=0 / deadzone=21,11 / fast_pskip=1 / chroma_qp_offset=-2 / threads=3 / sliced_threads=0 / nr=0 / decimate=1 / interlaced=0 / constrained_intra=0 / bframes=2 / b_pyramid=2 / b_adapt=1 / b_bias=0 / direct=1 / weightb=0 / open_gop=0 / weightp=2 / keyint=250 / keyint_min=25 / scenecut=40 / intra_refresh=0 / rc_lookahead=40 / rc=abr / mbtree=1 / bitrate=3050 / ratetol=1.0 / qcomp=0.60 / qpmin=3 / qpmax=51 / qpstep=4 / ip_ratio=1.40 / aq=1:1.00\nLanguage                         : English\nColor primaries                  : BT.709-5, BT.1361, IEC 61966-2-4, SMPTE RP177\nTransfer characteristics         : BT.709-5, BT.1361\nMatrix coefficients              : BT.709-5, BT.1361, IEC 61966-2-4 709, SMPTE RP177\n\nAudio\nID                               : 2\nFormat                           : AC-3\nFormat/Info                      : Audio Coding 3\nMode extension                   : CM (complete main)\nCodec ID                         : A_AC3\nDuration                         : 2h 19mn\nBit rate mode                    : Constant\nBit rate                         : 160 Kbps\nChannel(s)                       : 2 channels\nChannel positions                : Front: L R\nSampling rate                    : 48.0 KHz\nBit depth                        : 16 bits\nCompression mode                 : Lossy\nStream size                      : 159 MiB (5%)\nLanguage                         : English\n\n\nFormat                           : Matroska\nFile size                        : 3.12 GiB\nDuration                         : 2h 19mn\nOverall bit rate                 : 3 210 Kbps\nWriting application              : HandBrake 0.9.5\nWriting library                  : libmkv 0.6.4.1\n\nFilename 2: Formula 1 2011 Chinese Race Build Up.HD.1080i.(H.264.AC3.DD)\n\nComplete name                    : F1 2011 Chinese Race Build Up .HD.1080i.H264.AC3.DD.mkv\nID                               : 1\nFormat                           : AVC\nFormat/Info                      : Advanced Video Codec\nFormat profile                   : &lt;a class=&quot;__cf_email__&quot; href=&quot;/cdn-cgi/l/email-protection&quot; data-cfemail=&quot;eba68a8285aba7dfc5db&quot;&gt;[email&amp;#160;protected]&lt;/a&gt;&lt;script cf-hash='f9e31' type=&quot;text/javascript&quot;&gt;\n/* &lt;![CDATA[ */!function(){try{var t=&quot;currentScript&quot;in document?document.currentScript:function(){for(var t=document.getElementsByTagName(&quot;script&quot;),e=t.length;e--;)if(t[e].getAttribute(&quot;cf-hash&quot;))return t[e]}();if(t&amp;&amp;t.previousSibling){var e,r,n,i,c=t.previousSibling,a=c.getAttribute(&quot;data-cfemail&quot;);if(a){for(e=&quot;&quot;,r=parseInt(a.substr(0,2),16),n=2;a.length-n;n+=2)i=parseInt(a.substr(n,2),16)^r,e+=String.fromCharCode(i);e=document.createTextNode(e),c.parentNode.replaceChild(e,c)}}}catch(u){}}();/* ]]&gt; */&lt;/script&gt;\nFormat settings, CABAC           : Yes\nFormat settings, ReFrames        : 4 frames\nFormat settings, GOP             : M=1, N=16\nCodec ID                         : V_MPEG4/ISO/AVC\nDuration                         : 2h 19mn\nBit rate                         : 3 050 Kbps\nWidth                            : 1 440 pixels\nHeight                           : 1 078 pixels\nDisplay aspect ratio             : 16:9\nFrame rate mode                  : Variable\nFrame rate                       : 25.000 fps\nColor space                      : YUV\nChroma subsampling               : 4:2:0\nBit depth                        : 8 bits\nScan type                        : Progressive\nBits/(Pixel*Frame)               : 0.079\nStream size                      : 2.90 GiB (93%)\nWriting library                  : x264 core 112\nEncoding settings                : cabac=1 / ref=2 / deblock=1:0:0 / analyse=0x1:0x111 / me=hex / subme=6 / psy=1 / psy_rd=1.00:0.00 / mixed_ref=0 / me_range=16 / chroma_me=1 / trellis=0 / 8x8dct=0 / cqm=0 / deadzone=21,11 / fast_pskip=1 / chroma_qp_offset=-2 / threads=3 / sliced_threads=0 / nr=0 / decimate=1 / interlaced=0 / constrained_intra=0 / bframes=2 / b_pyramid=2 / b_adapt=1 / b_bias=0 / direct=1 / weightb=0 / open_gop=0 / weightp=2 / keyint=250 / keyint_min=25 / scenecut=40 / intra_refresh=0 / rc_lookahead=40 / rc=abr / mbtree=1 / bitrate=3050 / ratetol=1.0 / qcomp=0.60 / qpmin=3 / qpmax=51 / qpstep=4 / ip_ratio=1.40 / aq=1:1.00\nLanguage                         : English\nColor primaries                  : BT.709-5, BT.1361, IEC 61966-2-4, SMPTE RP177\nTransfer characteristics         : BT.709-5, BT.1361\nMatrix coefficients              : BT.709-5, BT.1361, IEC 61966-2-4 709, SMPTE RP177\n\nAudio\nID                               : 2\nFormat                           : AC-3\nFormat/Info                      : Audio Coding 3\nMode extension                   : CM (complete main)\nCodec ID                         : A_AC3\nDuration                         : 2h 19mn\nBit rate mode                    : Constant\nBit rate                         : 160 Kbps\nChannel(s)                       : 2 channels\nChannel positions                : Front: L R\nSampling rate                    : 48.0 KHz\nBit depth                        : 16 bits\nCompression mode                 : Lossy\nStream size                      : 159 MiB (5%)\nLanguage                         : English\n\n\n\n\n\nEnjoy\n\nThe BlackKnight","torrent":{"xt":"urn:btih:976ea7a92ccf6308cba020d16960d2864aab4cf6","amp;dn":"Formula+1+2011+Chinese+Race+HD+1080i+H264+AC3+DD","amp;tr":["udp%3A%2F%2Ftracker.openbittorrent.com%3A80","udp%3A%2F%2Fopen.demonii.com%3A1337","udp%3A%2F%2Ftracker.coppersurfer.tk%3A6969","udp%3A%2F%2Fexodus.desync.com%3A6969"],"infoHash":"976ea7a92ccf6308cba020d16960d2864aab4cf6","infoHashBuffer":{"type":"Buffer","data":[151,110,167,169,44,207,99,8,203,160,32,209,105,96,210,134,74,171,76,246]},"announce":[],"urlList":[]}}